<svg width="32" height="32" viewBox="0 0 32 32" fill="none" xmlns="http://www.w3.org/2000/svg">
<path d="M15.5 2.83301C13.6435 2.83301 11.863 3.57051 10.5503 4.88326C9.2375 6.19602 8.5 7.97649 8.5 9.83301C8.5 13.693 12.445 14.77 12.723 19.333H18.276C18.554 14.77 22.5 13.693 22.5 9.83301C22.5 7.97649 21.7625 6.19602 20.4497 4.88326C19.137 3.57051 17.3565 2.83301 15.5 2.83301V2.83301ZM15.5 28.166C17.394 28.166 17.983 27.139 18.167 26.5H12.833C13.017 27.14 13.606 28.166 15.5 28.166V28.166ZM12.75 25.498H18.25V20.334H12.75V25.498Z" fill="#777777"/>
</svg>
