<svg width="32" height="32" viewBox="0 0 32 32" fill="none" xmlns="http://www.w3.org/2000/svg">
<path d="M12.75 25.498H18.25V20.334H12.75V25.498V25.498ZM15.5 28.166C17.394 28.166 17.983 27.139 18.167 26.5H12.833C13.017 27.14 13.606 28.166 15.5 28.166V28.166ZM15.5 2.83298C13.6435 2.83298 11.863 3.57048 10.5503 4.88323C9.2375 6.19599 8.5 7.97646 8.5 9.83298C8.5 13.693 12.445 14.77 12.723 19.333H13.993C13.985 19.307 13.97 19.283 13.965 19.253L11.965 8.25598C11.9462 8.13843 11.9698 8.01802 12.0315 7.91625C12.0932 7.81447 12.1891 7.73795 12.3021 7.70034C12.415 7.66273 12.5377 7.66648 12.6481 7.71093C12.7585 7.75537 12.8496 7.83762 12.905 7.94298L13.458 9.04898L14.011 7.94198C14.0527 7.8593 14.1165 7.78981 14.1953 7.74126C14.2741 7.69271 14.3649 7.66701 14.4575 7.66701C14.5501 7.66701 14.6409 7.69271 14.7197 7.74126C14.7985 7.78981 14.8623 7.8593 14.904 7.94198L15.457 9.04798L16.01 7.94098C16.0511 7.85769 16.1148 7.78757 16.1937 7.73854C16.2726 7.68951 16.3636 7.66353 16.4565 7.66353C16.5494 7.66353 16.6404 7.68951 16.7193 7.73854C16.7982 7.78757 16.8619 7.85769 16.903 7.94098L17.457 9.04698L18.01 7.93998C18.0648 7.83418 18.1556 7.75144 18.2661 7.70667C18.3765 7.6619 18.4993 7.65805 18.6123 7.6958C18.7254 7.73356 18.8212 7.81044 18.8826 7.9126C18.9439 8.01475 18.9668 8.13546 18.947 8.25298L16.947 19.251C16.943 19.281 16.927 19.304 16.919 19.329H18.274C18.552 14.767 22.498 13.689 22.498 9.82898C22.498 5.96498 19.364 2.82898 15.498 2.82898L15.5 2.83298ZM17.458 10.666C17.3654 10.6663 17.2745 10.6408 17.1957 10.5922C17.1169 10.5436 17.0533 10.4739 17.012 10.391L16.458 9.28598L15.905 10.392C15.8629 10.4746 15.7989 10.544 15.7199 10.5925C15.6409 10.641 15.55 10.6667 15.4573 10.6668C15.3646 10.6669 15.2737 10.6414 15.1946 10.593C15.1155 10.5447 15.0512 10.4755 15.009 10.393L14.456 9.28798L13.903 10.394C13.8619 10.4771 13.7983 10.547 13.7195 10.5958C13.6406 10.6445 13.5497 10.6703 13.457 10.67H13.42L14.875 18.67H16.042L17.496 10.67H17.458V10.666Z" fill="#FFD233"/>
</svg>
